<svg width="164" height="40" viewBox="0 0 164 40" fill="none" xmlns="http://www.w3.org/2000/svg">
<path d="M33.6605 40H55.9651C56.6735 40.0001 57.3695 39.8153 57.983 39.4642C58.5965 39.1131 59.1059 38.6081 59.46 37.9999C59.8141 37.3918 60.0003 36.7019 60 35.9998C59.9997 35.2977 59.8128 34.608 59.4582 34.0002L44.4791 8.2859C44.1251 7.6779 43.6158 7.173 43.0024 6.82195C42.389 6.4709 41.6932 6.28609 40.9849 6.28609C40.2766 6.28609 39.5808 6.4709 38.9674 6.82195C38.354 7.173 37.8447 7.6779 37.4906 8.2859L33.6605 14.8653L26.1721 1.99953C25.8177 1.39157 25.3082 0.886738 24.6946 0.535756C24.0811 0.184773 23.3852 0 22.6767 0C21.9683 0 21.2724 0.184773 20.6588 0.535756C20.0453 0.886738 19.5357 1.39157 19.1814 1.99953L0.541766 34.0002C0.187162 34.608 0.000308623 35.2977 3.81985e-07 35.9998C-0.000307859 36.7019 0.18594 37.3918 0.54001 37.9999C0.89408 38.6081 1.40349 39.1131 2.017 39.4642C2.63051 39.8153 3.32649 40.0001 4.03493 40H18.0359C23.5832 40 27.6741 37.585 30.4891 32.8734L37.3233 21.143L40.9838 14.8653L51.9698 33.7222H37.3233L33.6605 40ZM17.8076 33.7158L8.03675 33.7136L22.6833 8.57243L29.9913 21.143L25.0983 29.545C23.2289 32.602 21.1051 33.7158 17.8076 33.7158Z" fill="#00DC82"/>
<path d="M33.6605 40H55.9651C56.6735 40.0001 57.3695 39.8153 57.983 39.4642C58.5965 39.1131 59.1059 38.6081 59.46 37.9999C59.8141 37.3918 60.0003 36.7019 60 35.9998C59.9997 35.2977 59.8128 34.608 59.4582 34.0002L44.4791 8.2859C44.1251 7.6779 43.6158 7.173 43.0024 6.82195C42.389 6.4709 41.6932 6.28609 40.9849 6.28609C40.2766 6.28609 39.5808 6.4709 38.9674 6.82195C38.354 7.173 37.8447 7.6779 37.4906 8.2859L33.6605 14.8653L26.1721 1.99953C25.8177 1.39157 25.3082 0.886738 24.6946 0.535756C24.0811 0.184773 23.3852 0 22.6767 0C21.9683 0 21.2724 0.184773 20.6588 0.535756C20.0453 0.886738 19.5357 1.39157 19.1814 1.99953L0.541766 34.0002C0.187162 34.608 0.000308623 35.2977 3.81985e-07 35.9998C-0.000307859 36.7019 0.18594 37.3918 0.54001 37.9999C0.89408 38.6081 1.40349 39.1131 2.017 39.4642C2.63051 39.8153 3.32649 40.0001 4.03493 40H18.0359C23.5832 40 27.6741 37.585 30.4891 32.8734L37.3233 21.143L40.9838 14.8653L51.9698 33.7222H37.3233L33.6605 40ZM17.8076 33.7158L8.03675 33.7136L22.6833 8.57243L29.9913 21.143L25.0983 29.545C23.2289 32.602 21.1051 33.7158 17.8076 33.7158Z" fill="#00DC82"/>
<path d="M74.5037 39.6384V25.2655C74.5037 21.1525 74.0701 17.0396 74.0701 17.0396C74.0701 17.0396 75.7177 20.791 77.7989 24.3164L86.6873 39.6384H93.6679V8H87.1209V22.3729C87.1209 26.4859 87.5545 30.6441 87.5545 30.6441C87.5545 30.6441 85.9068 26.8475 83.869 23.322L74.9373 8H68V39.6384H74.5037Z" fill="white"/>
<path d="M114.294 16.8588V29.3333C114.294 32.226 112.43 34.3955 109.785 34.3955C107.314 34.3955 105.58 32.4068 105.58 29.6497V16.8588H99.5528V31.0508C99.5528 36.2486 102.761 40 107.661 40C110.652 40 113.08 38.6441 114.294 36.4746V39.6384H120.365V16.8588H114.294Z" fill="white"/>
<path d="M138.017 27.7966L145.344 16.8588H138.71L134.721 22.8701L130.733 16.8588H124.142L131.47 27.7514L123.578 39.6384H130.039L134.765 32.6328L139.448 39.6384H145.864L138.017 27.7966Z" fill="white"/>
<path d="M152.12 16.8588H147.914V22.1017H152.12V31.3672C152.12 36.6554 155.372 39.6384 160.401 39.6384H164V34.3503H161.225C159.274 34.3503 158.147 33.3107 158.147 31.096V22.1017H164V16.8588H158.147V10.1243H152.12V16.8588Z" fill="white"/>
</svg>
